<mxfile host="app.diagrams.net" modified="2023-03-26T19:20:16.681Z" agent="Mozilla/5.0 (Windows NT 10.0; Win64; x64) AppleWebKit/537.36 (KHTML, like Gecko) Chrome/111.0.0.0 Safari/537.36" etag="uQuZmBaYrch1NBBkvdgz" version="21.1.1" type="device">
  <diagram name="Page-1" id="JCEGxdFOgvOAtDUVBZYm">
    <mxGraphModel dx="1560" dy="864" grid="1" gridSize="10" guides="1" tooltips="1" connect="1" arrows="1" fold="1" page="1" pageScale="1" pageWidth="850" pageHeight="1100" math="0" shadow="0">
      <root>
        <mxCell id="0" />
        <mxCell id="1" parent="0" />
        <mxCell id="HDsGMQWWcjxy8k_yasPS-3" value="Start&lt;br&gt;&lt;b&gt;/api/auth/login&lt;/b&gt;" style="strokeWidth=2;html=1;shape=mxgraph.flowchart.start_2;whiteSpace=wrap;fontSize=16;" parent="1" vertex="1">
          <mxGeometry x="390" y="150" width="125" height="120" as="geometry" />
        </mxCell>
        <mxCell id="HDsGMQWWcjxy8k_yasPS-4" value="&lt;b&gt;User&lt;/b&gt; &lt;b&gt;Input&lt;br&gt;&lt;/b&gt;Login credentials&lt;br&gt;user_name: string&lt;br&gt;password: string" style="shape=parallelogram;html=1;strokeWidth=2;perimeter=parallelogramPerimeter;whiteSpace=wrap;rounded=1;arcSize=12;size=0.23;fontSize=16;" parent="1" vertex="1">
          <mxGeometry x="330" y="370" width="215" height="100" as="geometry" />
        </mxCell>
        <mxCell id="HDsGMQWWcjxy8k_yasPS-5" value="&lt;b&gt;Login API&lt;/b&gt;" style="text;html=1;strokeColor=none;fillColor=none;align=center;verticalAlign=middle;whiteSpace=wrap;rounded=0;fontSize=16;" parent="1" vertex="1">
          <mxGeometry x="325" y="60" width="180" height="30" as="geometry" />
        </mxCell>
        <mxCell id="HDsGMQWWcjxy8k_yasPS-7" value="" style="endArrow=classic;html=1;rounded=0;fontSize=12;startSize=8;endSize=8;curved=1;exitX=0.5;exitY=1;exitDx=0;exitDy=0;exitPerimeter=0;" parent="1" source="HDsGMQWWcjxy8k_yasPS-3" edge="1">
          <mxGeometry width="50" height="50" relative="1" as="geometry">
            <mxPoint x="515" y="410" as="sourcePoint" />
            <mxPoint x="453" y="370" as="targetPoint" />
          </mxGeometry>
        </mxCell>
        <mxCell id="HDsGMQWWcjxy8k_yasPS-8" value="&lt;b&gt;is&lt;br&gt;authorized?&lt;/b&gt;" style="strokeWidth=2;html=1;shape=mxgraph.flowchart.decision;whiteSpace=wrap;fontSize=16;" parent="1" vertex="1">
          <mxGeometry x="350" y="620" width="175" height="140" as="geometry" />
        </mxCell>
        <mxCell id="HDsGMQWWcjxy8k_yasPS-9" value="" style="endArrow=classic;html=1;rounded=0;fontSize=12;startSize=8;endSize=8;curved=1;entryX=0.5;entryY=0;entryDx=0;entryDy=0;entryPerimeter=0;exitX=0.5;exitY=1;exitDx=0;exitDy=0;" parent="1" source="HDsGMQWWcjxy8k_yasPS-4" target="HDsGMQWWcjxy8k_yasPS-8" edge="1">
          <mxGeometry width="50" height="50" relative="1" as="geometry">
            <mxPoint x="440" y="480" as="sourcePoint" />
            <mxPoint x="420" y="410" as="targetPoint" />
          </mxGeometry>
        </mxCell>
        <mxCell id="HDsGMQWWcjxy8k_yasPS-10" value="" style="endArrow=classic;html=1;rounded=0;fontSize=12;startSize=8;endSize=8;exitX=1;exitY=0.5;exitDx=0;exitDy=0;exitPerimeter=0;edgeStyle=elbowEdgeStyle;entryX=0.5;entryY=1;entryDx=0;entryDy=0;" parent="1" source="HDsGMQWWcjxy8k_yasPS-8" target="HDsGMQWWcjxy8k_yasPS-14" edge="1">
          <mxGeometry width="50" height="50" relative="1" as="geometry">
            <mxPoint x="370" y="460" as="sourcePoint" />
            <mxPoint x="670" y="630" as="targetPoint" />
            <Array as="points">
              <mxPoint x="670" y="640" />
            </Array>
          </mxGeometry>
        </mxCell>
        <mxCell id="HDsGMQWWcjxy8k_yasPS-13" value="" style="endArrow=classic;html=1;rounded=0;fontSize=12;startSize=8;endSize=8;exitX=0.5;exitY=0;exitDx=0;exitDy=0;entryX=1;entryY=0.5;entryDx=0;entryDy=0;edgeStyle=orthogonalEdgeStyle;" parent="1" source="HDsGMQWWcjxy8k_yasPS-14" target="HDsGMQWWcjxy8k_yasPS-4" edge="1">
          <mxGeometry width="50" height="50" relative="1" as="geometry">
            <mxPoint x="660" y="500" as="sourcePoint" />
            <mxPoint x="440" y="410" as="targetPoint" />
            <Array as="points">
              <mxPoint x="670" y="420" />
            </Array>
          </mxGeometry>
        </mxCell>
        <mxCell id="HDsGMQWWcjxy8k_yasPS-14" value="&lt;b&gt;Response code: 200&lt;/b&gt;&lt;br&gt;JWT Access token&lt;br&gt;access_token: string&lt;br&gt;token_type: Bearer" style="shape=parallelogram;html=1;strokeWidth=2;perimeter=parallelogramPerimeter;whiteSpace=wrap;rounded=1;arcSize=12;size=0;fontSize=16;" parent="1" vertex="1">
          <mxGeometry x="580" y="500" width="160" height="100" as="geometry" />
        </mxCell>
        <mxCell id="HDsGMQWWcjxy8k_yasPS-15" value="Success" style="text;html=1;align=center;verticalAlign=middle;resizable=0;points=[];autosize=1;strokeColor=none;fillColor=none;fontSize=16;" parent="1" vertex="1">
          <mxGeometry x="560" y="665" width="80" height="30" as="geometry" />
        </mxCell>
        <mxCell id="HDsGMQWWcjxy8k_yasPS-17" value="POST" style="text;html=1;align=center;verticalAlign=middle;resizable=0;points=[];autosize=1;strokeColor=none;fillColor=none;fontSize=16;" parent="1" vertex="1">
          <mxGeometry x="455" y="300" width="70" height="30" as="geometry" />
        </mxCell>
        <mxCell id="HDsGMQWWcjxy8k_yasPS-19" value="Login" style="rounded=1;whiteSpace=wrap;html=1;absoluteArcSize=1;arcSize=14;strokeWidth=2;fontSize=16;" parent="1" vertex="1">
          <mxGeometry x="49" y="490" width="100" height="60" as="geometry" />
        </mxCell>
        <mxCell id="HDsGMQWWcjxy8k_yasPS-20" value="" style="endArrow=classic;html=1;rounded=0;fontSize=12;startSize=8;endSize=8;exitX=0;exitY=0.5;exitDx=0;exitDy=0;entryX=0.5;entryY=0;entryDx=0;entryDy=0;edgeStyle=orthogonalEdgeStyle;" parent="1" source="HDsGMQWWcjxy8k_yasPS-4" target="HDsGMQWWcjxy8k_yasPS-19" edge="1">
          <mxGeometry width="50" height="50" relative="1" as="geometry">
            <mxPoint x="340" y="710" as="sourcePoint" />
            <mxPoint x="390" y="660" as="targetPoint" />
          </mxGeometry>
        </mxCell>
        <mxCell id="HDsGMQWWcjxy8k_yasPS-22" value="Login with&lt;br&gt;&amp;nbsp;JWT token" style="edgeLabel;html=1;align=center;verticalAlign=middle;resizable=0;points=[];fontSize=16;" parent="HDsGMQWWcjxy8k_yasPS-20" vertex="1" connectable="0">
          <mxGeometry x="-0.0137" y="1" relative="1" as="geometry">
            <mxPoint x="32" y="-1" as="offset" />
          </mxGeometry>
        </mxCell>
        <mxCell id="HDsGMQWWcjxy8k_yasPS-23" value="&lt;b&gt;Response code: 401&lt;/b&gt;&lt;br&gt;Unauthorized" style="rounded=1;whiteSpace=wrap;html=1;absoluteArcSize=1;arcSize=14;strokeWidth=2;fontSize=16;" parent="1" vertex="1">
          <mxGeometry x="340" y="840" width="190" height="60" as="geometry" />
        </mxCell>
        <mxCell id="HDsGMQWWcjxy8k_yasPS-24" value="" style="endArrow=classic;html=1;rounded=0;fontSize=12;startSize=8;endSize=8;curved=1;exitX=0.5;exitY=1;exitDx=0;exitDy=0;exitPerimeter=0;entryX=0.5;entryY=0;entryDx=0;entryDy=0;" parent="1" source="HDsGMQWWcjxy8k_yasPS-8" target="HDsGMQWWcjxy8k_yasPS-23" edge="1">
          <mxGeometry width="50" height="50" relative="1" as="geometry">
            <mxPoint x="410" y="660" as="sourcePoint" />
            <mxPoint x="460" y="610" as="targetPoint" />
          </mxGeometry>
        </mxCell>
        <mxCell id="HDsGMQWWcjxy8k_yasPS-25" value="&lt;b&gt;Response code: 500&lt;/b&gt;&lt;br&gt;Internal server error" style="rounded=1;whiteSpace=wrap;html=1;absoluteArcSize=1;arcSize=14;strokeWidth=2;fontSize=16;" parent="1" vertex="1">
          <mxGeometry x="117" y="653" width="163" height="75" as="geometry" />
        </mxCell>
        <mxCell id="HDsGMQWWcjxy8k_yasPS-26" value="&lt;b&gt;Stop&lt;/b&gt;" style="strokeWidth=2;html=1;shape=mxgraph.flowchart.terminator;whiteSpace=wrap;fontSize=16;" parent="1" vertex="1">
          <mxGeometry x="387.5" y="990" width="100" height="60" as="geometry" />
        </mxCell>
        <mxCell id="HDsGMQWWcjxy8k_yasPS-33" value="" style="endArrow=classic;html=1;rounded=0;fontSize=12;startSize=8;endSize=8;curved=1;entryX=0.5;entryY=0;entryDx=0;entryDy=0;entryPerimeter=0;exitX=0.5;exitY=1;exitDx=0;exitDy=0;" parent="1" source="HDsGMQWWcjxy8k_yasPS-23" target="HDsGMQWWcjxy8k_yasPS-26" edge="1">
          <mxGeometry width="50" height="50" relative="1" as="geometry">
            <mxPoint x="390" y="860" as="sourcePoint" />
            <mxPoint x="440" y="810" as="targetPoint" />
          </mxGeometry>
        </mxCell>
        <mxCell id="HDsGMQWWcjxy8k_yasPS-34" value="" style="endArrow=classic;html=1;rounded=0;fontSize=12;startSize=8;endSize=8;curved=1;exitX=0;exitY=0.5;exitDx=0;exitDy=0;exitPerimeter=0;entryX=1;entryY=0.5;entryDx=0;entryDy=0;" parent="1" source="HDsGMQWWcjxy8k_yasPS-8" target="HDsGMQWWcjxy8k_yasPS-25" edge="1">
          <mxGeometry width="50" height="50" relative="1" as="geometry">
            <mxPoint x="390" y="860" as="sourcePoint" />
            <mxPoint x="440" y="810" as="targetPoint" />
          </mxGeometry>
        </mxCell>
        <mxCell id="HDsGMQWWcjxy8k_yasPS-35" value="" style="endArrow=classic;html=1;rounded=0;fontSize=12;startSize=8;endSize=8;exitX=0.5;exitY=1;exitDx=0;exitDy=0;entryX=0;entryY=0.5;entryDx=0;entryDy=0;entryPerimeter=0;edgeStyle=orthogonalEdgeStyle;" parent="1" source="HDsGMQWWcjxy8k_yasPS-25" target="HDsGMQWWcjxy8k_yasPS-26" edge="1">
          <mxGeometry width="50" height="50" relative="1" as="geometry">
            <mxPoint x="390" y="860" as="sourcePoint" />
            <mxPoint x="440" y="810" as="targetPoint" />
          </mxGeometry>
        </mxCell>
        <mxCell id="HDsGMQWWcjxy8k_yasPS-37" value="Credentials not valid" style="text;html=1;strokeColor=none;fillColor=none;align=center;verticalAlign=middle;whiteSpace=wrap;rounded=0;fontSize=16;" parent="1" vertex="1">
          <mxGeometry x="361" y="780" width="70" height="30" as="geometry" />
        </mxCell>
        <mxCell id="4T8N0-NrFXmGZsje0uro-3" style="edgeStyle=elbowEdgeStyle;rounded=0;orthogonalLoop=1;jettySize=auto;html=1;fontSize=12;startSize=8;endSize=8;exitX=0.5;exitY=1;exitDx=0;exitDy=0;" parent="1" source="HDsGMQWWcjxy8k_yasPS-19" edge="1">
          <mxGeometry relative="1" as="geometry">
            <mxPoint x="101" y="540" as="sourcePoint" />
            <mxPoint x="390" y="1020" as="targetPoint" />
            <Array as="points">
              <mxPoint x="101" y="1020" />
              <mxPoint x="101" y="820" />
            </Array>
          </mxGeometry>
        </mxCell>
        <mxCell id="HDsGMQWWcjxy8k_yasPS-39" value="Internal error" style="text;html=1;strokeColor=none;fillColor=none;align=center;verticalAlign=middle;whiteSpace=wrap;rounded=0;fontSize=16;" parent="1" vertex="1">
          <mxGeometry x="289" y="653" width="60" height="30" as="geometry" />
        </mxCell>
        <mxCell id="HDsGMQWWcjxy8k_yasPS-43" value="Store in client&#39;s cookie" style="text;html=1;strokeColor=none;fillColor=none;align=center;verticalAlign=middle;whiteSpace=wrap;rounded=0;fontSize=16;" parent="1" vertex="1">
          <mxGeometry x="570" y="380" width="120" height="40" as="geometry" />
        </mxCell>
        <mxCell id="4T8N0-NrFXmGZsje0uro-1" value="JSON" style="text;html=1;strokeColor=none;fillColor=none;align=center;verticalAlign=middle;whiteSpace=wrap;rounded=0;fontSize=16;" parent="1" vertex="1">
          <mxGeometry x="750" y="535" width="60" height="30" as="geometry" />
        </mxCell>
      </root>
    </mxGraphModel>
  </diagram>
</mxfile>
